<svg xmlns="http://www.w3.org/2000/svg" enable-background="new 0 0 67 67" viewBox="0 0 67 67"><path d="M24,29.5l-5.8,13.6c-0.6,1.4-0.9,2.8-0.9,4.3v4.9h-1.8c-0.1-2.4-2.2-4.4-4.6-4.4c-2.6,0-4.6,2.1-4.6,4.6v9.4
		c0,2.6,2.1,4.6,4.6,4.6c2.5,0,4.5-1.9,4.6-4.4h35.8c0.1,2.4,2.2,4.4,4.6,4.4c2.6,0,4.6-2.1,4.6-4.6v-9.4c0-2.6-2.1-4.6-4.6-4.6
		c-2.5,0-4.5,1.9-4.6,4.4h-1.8v-4.9c0-1.5-0.3-3-0.9-4.3l-5.8-13.7c-0.5-0.9-1.2-1.7-2-2.2c0.8-1,1.3-2.5,1.6-4.5l2.3-17
		c0.3-2.6-1.5-5-4-5h0c-0.3-0.3-0.7-0.5-1.1-0.5h-12c-0.4,0-0.8,0.2-1.1,0.5h-0.3c-2.5,0-4.4,2.4-4,5l2.3,17c0.3,2,0.8,3.5,1.6,4.5
		C25.3,27.8,24.5,28.5,24,29.5z M42,52.4V50c0-0.6-0.4-1-1-1s-1,0.4-1,1v2.4h-1.8V50c0-0.6-0.4-1-1-1s-1,0.4-1,1v2.4h-1.8V50
		c0-0.6-0.4-1-1-1s-1,0.4-1,1v2.4h-1.8V50c0-0.6-0.4-1-1-1s-1,0.4-1,1v2.4H27V50c0-0.6-0.4-1-1-1s-1,0.4-1,1v2.4h-1.8l0.7-4.1
		c0.1-0.4,0.3-0.7,0.7-0.7h18c0.3,0,0.6,0.3,0.7,0.7l0.7,4.1H42z M13.6,62.1c0,1.5-1.2,2.6-2.6,2.6s-2.6-1.2-2.6-2.6v-9.4
		c0-1.5,1.2-2.6,2.6-2.6s2.6,1.2,2.6,2.6C13.6,56.1,13.6,58.7,13.6,62.1z M53.4,52.7c0-1.5,1.2-2.6,2.6-2.6c1.5,0,2.6,1.2,2.6,2.6
		v9.4c0,1.5-1.2,2.6-2.6,2.6c-1.5,0-2.6-1.2-2.6-2.6C53.4,61.9,53.4,52.4,53.4,52.7z M51.4,60.4H15.6v-6c1,0,9.9,0,9.4,0v2.4
		c0,0.6,0.4,1,1,1s1-0.4,1-1v-2.4h1.8v2.4c0,0.6,0.4,1,1,1s1-0.4,1-1v-2.4h1.8v2.4c0,0.6,0.4,1,1,1s1-0.4,1-1v-2.4h1.8v2.4
		c0,0.6,0.4,1,1,1s1-0.4,1-1v-2.4H40v2.4c0,0.6,0.4,1,1,1s1-0.4,1-1v-2.4c0.1,0,9.9,0,9.4,0V60.4z M26.5,22.5l-2.3-17
		C24,4,25,2.7,26.2,2.7h0.3c0.3,0.3,0.7,0.5,1.1,0.5h12c0.4,0,0.8-0.2,1.1-0.5h0c1.2,0,2.2,1.2,2,2.7l-2.3,17
		c-0.3,2.7-1.2,4.1-1.9,4.1H28.4c0,0,0,0,0,0C27.7,26.6,26.8,25.2,26.5,22.5z M28.4,28.6C28.4,28.6,28.4,28.6,28.4,28.6l10.1,0
		c0,0,0,0,0,0c1,0,2,0.7,2.5,1.7l5.8,13.6c0.5,1.1,0.7,2.3,0.7,3.6v4.9h-1.7L45.1,48c-0.2-1.3-1.3-2.3-2.6-2.3h-18
		c-1.3,0-2.4,1-2.6,2.3l-0.8,4.5h-1.7v-4.9c0-1.2,0.2-2.5,0.7-3.6l5.7-13.6C26.4,29.3,27.4,28.6,28.4,28.6z"/></svg>